<svg width="300" height="156" viewBox="0 0 300 156" fill="none" xmlns="http://www.w3.org/2000/svg">
<g clip-path="url(#clip0_6070_129)">
<rect width="300" height="156" fill="#2D2D3E"/>
<g clip-path="url(#clip1_6070_129)">
<path d="M163.353 117.398C163.353 165.917 124.02 205.25 75.5005 205.25C26.9812 205.25 -12.3516 165.917 -12.3516 117.398V116.8C-12.3516 68.2809 26.9812 28.9482 75.5005 28.9482C124.02 28.9482 163.353 68.2809 163.353 116.8V117.398Z" fill="#3E4062"/>
<path opacity="0.5" d="M226.85 117.696C226.85 201.285 159.088 269.047 75.499 269.047C-8.0896 269.047 -75.8516 201.285 -75.8516 117.696V116.501C-75.8516 32.9124 -8.0896 -34.8495 75.499 -34.8495C159.088 -34.8495 226.85 32.9124 226.85 116.501V117.696Z" stroke="#878D92" stroke-width="0.298817"/>
<path d="M176.051 117.395C176.051 172.929 131.032 217.947 75.499 217.947C19.9658 217.947 -25.0527 172.929 -25.0527 117.395V116.798C-25.0527 61.2646 19.9658 16.2461 75.499 16.2461C131.032 16.2461 176.051 61.2646 176.051 116.798V117.395Z" stroke="#878D92" stroke-width="0.298817"/>
</g>
</g>
<defs>
<clipPath id="clip0_6070_129">
<rect width="300" height="156" fill="white"/>
</clipPath>
<clipPath id="clip1_6070_129">
<rect width="303" height="304.195" fill="white" transform="translate(-76 -35)"/>
</clipPath>
</defs>
</svg>
