<svg width="2104" height="2230" viewBox="0 0 2104 2230" fill="none" xmlns="http://www.w3.org/2000/svg">
<path fill-rule="evenodd" clip-rule="evenodd" d="M1756.19 1498.75L1460.85 2229.75L731.371 1935.02L989.254 1296.74C1009.94 1245.53 1068.23 1220.79 1119.43 1241.48L1756.19 1498.75ZM541.607 1006.76C743.046 1088.15 840.368 1317.43 758.981 1518.86L758.365 1520.39C676.978 1721.83 447.703 1819.15 246.263 1737.76C44.8226 1656.38 -52.4982 1427.1 28.888 1225.66L29.5043 1224.14C110.891 1022.7 340.167 925.376 541.607 1006.76ZM1252.3 294.728L994.419 933.01C973.729 984.219 915.447 1008.96 864.239 988.268L227.481 731.001L522.825 0L1252.3 294.728ZM2103.67 638.704L1808.33 1369.71L1171.57 1112.44C1120.36 1091.75 1095.62 1033.47 1116.31 982.259L1374.2 343.976L2103.67 638.704Z" fill="url(#paint0_linear_6050_7600)"/>
<defs>
<linearGradient id="paint0_linear_6050_7600" x1="1532.99" y1="408.13" x2="94739.7" y2="221968" gradientUnits="userSpaceOnUse">
<stop stop-color="#FF8F71"/>
<stop offset="1" stop-color="#FF3E55"/>
</linearGradient>
</defs>
</svg>
